<mxfile host="app.diagrams.net" modified="2024-05-21T01:23:10.016Z" agent="Mozilla/5.0 (Windows NT 10.0; Win64; x64) AppleWebKit/537.36 (KHTML, like Gecko) Chrome/124.0.0.0 Safari/537.36" etag="_MBzjZKT_rEIsA6DrYnh" version="24.4.4" type="github">
  <diagram name="第 1 页" id="2jOeF568bdVTaprle0Wv">
    <mxGraphModel dx="1194" dy="716" grid="1" gridSize="10" guides="1" tooltips="1" connect="1" arrows="1" fold="1" page="1" pageScale="1" pageWidth="827" pageHeight="1169" math="0" shadow="0">
      <root>
        <mxCell id="0" />
        <mxCell id="1" parent="0" />
        <mxCell id="XVEGBIBljSp9t7XJSge1-2" value="" style="rounded=0;whiteSpace=wrap;html=1;" vertex="1" parent="1">
          <mxGeometry x="130" y="120" width="270" height="440" as="geometry" />
        </mxCell>
        <mxCell id="XVEGBIBljSp9t7XJSge1-3" value="" style="rounded=0;whiteSpace=wrap;html=1;" vertex="1" parent="1">
          <mxGeometry x="400" y="120" width="320" height="190" as="geometry" />
        </mxCell>
        <mxCell id="XVEGBIBljSp9t7XJSge1-4" value="" style="ellipse;whiteSpace=wrap;html=1;aspect=fixed;" vertex="1" parent="1">
          <mxGeometry x="380" y="270" width="20" height="20" as="geometry" />
        </mxCell>
        <mxCell id="XVEGBIBljSp9t7XJSge1-5" value="" style="ellipse;whiteSpace=wrap;html=1;aspect=fixed;" vertex="1" parent="1">
          <mxGeometry x="380" y="290" width="20" height="20" as="geometry" />
        </mxCell>
        <mxCell id="XVEGBIBljSp9t7XJSge1-6" value="" style="rounded=0;whiteSpace=wrap;html=1;" vertex="1" parent="1">
          <mxGeometry x="390" y="170" width="20" height="60" as="geometry" />
        </mxCell>
        <mxCell id="XVEGBIBljSp9t7XJSge1-7" value="花洒" style="text;html=1;align=center;verticalAlign=middle;whiteSpace=wrap;rounded=0;" vertex="1" parent="1">
          <mxGeometry x="400" y="180" width="60" height="30" as="geometry" />
        </mxCell>
        <mxCell id="XVEGBIBljSp9t7XJSge1-8" value="花洒" style="text;html=1;align=center;verticalAlign=middle;whiteSpace=wrap;rounded=0;" vertex="1" parent="1">
          <mxGeometry x="340" y="180" width="60" height="30" as="geometry" />
        </mxCell>
        <mxCell id="XVEGBIBljSp9t7XJSge1-9" value="" style="ellipse;whiteSpace=wrap;html=1;aspect=fixed;" vertex="1" parent="1">
          <mxGeometry x="380" y="100" width="20" height="20" as="geometry" />
        </mxCell>
        <mxCell id="XVEGBIBljSp9t7XJSge1-10" value="入水口" style="text;html=1;align=center;verticalAlign=middle;whiteSpace=wrap;rounded=0;" vertex="1" parent="1">
          <mxGeometry x="400" y="80" width="60" height="30" as="geometry" />
        </mxCell>
        <mxCell id="XVEGBIBljSp9t7XJSge1-11" value="" style="rounded=0;whiteSpace=wrap;html=1;" vertex="1" parent="1">
          <mxGeometry x="320" y="320" width="80" height="60" as="geometry" />
        </mxCell>
        <mxCell id="XVEGBIBljSp9t7XJSge1-12" value="" style="rounded=0;whiteSpace=wrap;html=1;" vertex="1" parent="1">
          <mxGeometry x="220" y="500" width="110" height="60" as="geometry" />
        </mxCell>
        <mxCell id="XVEGBIBljSp9t7XJSge1-13" value="洗手台" style="text;html=1;align=center;verticalAlign=middle;whiteSpace=wrap;rounded=0;" vertex="1" parent="1">
          <mxGeometry x="245" y="515" width="60" height="30" as="geometry" />
        </mxCell>
        <mxCell id="XVEGBIBljSp9t7XJSge1-14" value="马桶" style="text;html=1;align=center;verticalAlign=middle;whiteSpace=wrap;rounded=0;" vertex="1" parent="1">
          <mxGeometry x="330" y="335" width="60" height="30" as="geometry" />
        </mxCell>
        <mxCell id="XVEGBIBljSp9t7XJSge1-16" value="" style="rounded=0;whiteSpace=wrap;html=1;" vertex="1" parent="1">
          <mxGeometry x="620" y="250" width="80" height="60" as="geometry" />
        </mxCell>
        <mxCell id="XVEGBIBljSp9t7XJSge1-17" value="" style="rounded=0;whiteSpace=wrap;html=1;" vertex="1" parent="1">
          <mxGeometry x="520" y="250" width="60" height="60" as="geometry" />
        </mxCell>
        <mxCell id="XVEGBIBljSp9t7XJSge1-18" value="马桶" style="text;html=1;align=center;verticalAlign=middle;whiteSpace=wrap;rounded=0;" vertex="1" parent="1">
          <mxGeometry x="520" y="270" width="60" height="30" as="geometry" />
        </mxCell>
        <mxCell id="XVEGBIBljSp9t7XJSge1-19" value="洗手台" style="text;html=1;align=center;verticalAlign=middle;whiteSpace=wrap;rounded=0;" vertex="1" parent="1">
          <mxGeometry x="630" y="270" width="60" height="30" as="geometry" />
        </mxCell>
      </root>
    </mxGraphModel>
  </diagram>
</mxfile>
